<svg aria-label="Coinbase" class="mx-3" fill="currentColor" height="26" width="142" xmlns="http://www.w3.org/2000/svg"><path d="M28.66 7.48c-5.157 0-9.19 3.859-9.19 9.027 0 5.168 3.929 8.993 9.19 8.993 5.26 0 9.257-3.893 9.257-9.027 0-5.101-3.929-8.993-9.258-8.993zm.034 14.295c-2.937 0-5.09-2.248-5.09-5.268 0-3.049 2.118-5.303 5.055-5.303 2.973 0 5.124 2.287 5.124 5.303s-2.151 5.268-5.089 5.268zm10.35-10.369h2.562v13.759h4.099V7.815h-6.662zm-29.892-.202c2.152 0 3.867 1.309 4.511 3.255h4.339c-.786-4.16-4.27-6.98-8.813-6.98C4.031 7.48 0 11.34 0 16.508 0 21.675 3.929 25.5 9.19 25.5c4.44 0 7.99-2.819 8.777-7.014h-4.304c-.615 1.946-2.32 3.29-4.474 3.29-2.972 0-5.055-2.25-5.055-5.27 0-3.048 2.053-5.302 5.018-5.302zm107.772 3.625-3.006-.436c-1.435-.202-2.459-.672-2.459-1.779 0-1.208 1.333-1.812 3.142-1.812 1.981 0 3.246.84 3.519 2.215h3.963c-.445-3.49-3.178-5.537-7.379-5.537-4.336 0-7.202 2.18-7.202 5.268 0 2.954 1.878 4.665 5.671 5.2l3.006.438c1.469.2 2.289.77 2.289 1.846 0 1.376-1.434 1.946-3.416 1.946-2.425 0-3.792-.973-3.995-2.45h-4.036c.375 3.389 3.074 5.772 7.991 5.772 4.476 0 7.447-2.014 7.447-5.47.001-3.087-2.15-4.698-5.532-5.201zM43.655.668c-1.503 0-2.63 1.073-2.63 2.55 0 1.478 1.125 2.55 2.63 2.55 1.506 0 2.631-1.076 2.631-2.55 0-1.473-1.128-2.55-2.63-2.55zm60.155 13.085c0-3.76-2.32-6.276-7.242-6.276-4.64 0-7.242 2.316-7.754 5.873h4.065c.205-1.376 1.298-2.517 3.621-2.517 2.083 0 3.108.906 3.108 2.013 0 1.443-1.878 1.813-4.201 2.048-3.143.335-7.038 1.408-7.038 5.436 0 3.12 2.358 5.133 6.115 5.133 2.938 0 4.782-1.208 5.705-3.12.137 1.711 1.435 2.82 3.244 2.82h2.393v-3.59h-2.016zm-4.03 4.362c0 2.315-2.05 4.026-4.544 4.026-1.537 0-2.836-.635-2.836-1.98 0-1.71 2.083-2.18 3.996-2.382 1.844-.168 2.869-.57 3.382-1.342zM78.02 7.48a7.233 7.233 0 0 0-3.072.64 7.135 7.135 0 0 0-2.497 1.876V.5h-4.099v24.665h4.031v-2.287a7.091 7.091 0 0 0 2.512 1.95 7.195 7.195 0 0 0 3.125.668c4.919 0 8.636-3.826 8.636-8.993S82.87 7.48 78.02 7.48zm-.615 14.295c-2.938 0-5.09-2.248-5.09-5.268s2.191-5.303 5.124-5.303c2.972 0 5.056 2.254 5.056 5.303 0 3.02-2.152 5.268-5.09 5.268zM58.548 7.48c-2.664 0-4.405 1.073-5.43 2.584v-2.25h-4.066v17.35h4.1v-9.43c0-2.65 1.707-4.53 4.235-4.53 2.358 0 3.826 1.644 3.826 4.027v9.934h4.099V14.929c0-4.362-2.288-7.45-6.764-7.45zM142 15.937c0-4.968-3.689-8.457-8.643-8.457-5.26 0-9.121 3.892-9.121 9.027 0 5.402 4.134 8.993 9.19 8.993 4.27 0 7.618-2.484 8.471-6.006h-4.269c-.615 1.543-2.118 2.413-4.134 2.413-2.631 0-4.612-1.61-5.055-4.428H142zm-13.323-1.343c.645-2.414 2.494-3.59 4.612-3.59 2.32 0 4.099 1.308 4.511 3.59z"/></svg>