<svg aria-label="Google" class="mx-3" fill="currentColor" height="33" width="99" xmlns="http://www.w3.org/2000/svg"><path d="M24.125 11.786h-11.45v3.4h8.12c-.4 4.77-4.365 6.803-8.107 6.803-4.787 0-8.964-3.77-8.964-9.054 0-5.147 3.982-9.112 8.975-9.112 3.852 0 6.122 2.458 6.122 2.458l2.38-2.465S18.146.413 12.577.413C5.486.413 0 6.403 0 12.875c0 6.34 5.16 12.523 12.759 12.523 6.682 0 11.574-4.581 11.574-11.357 0-1.429-.207-2.255-.207-2.255zM33.506 9.323c-4.699 0-8.066 3.677-8.066 7.965 0 4.35 3.266 8.096 8.12 8.096 4.396 0 7.996-3.362 7.996-8.003 0-5.318-4.188-8.058-8.05-8.058zm.046 3.154c2.31 0 4.5 1.87 4.5 4.883 0 2.949-2.18 4.872-4.51 4.872-2.561 0-4.581-2.053-4.581-4.895 0-2.782 1.995-4.86 4.591-4.86zM51.048 9.323c-4.699 0-8.066 3.677-8.066 7.965 0 4.35 3.266 8.096 8.121 8.096 4.395 0 7.996-3.362 7.996-8.003 0-5.318-4.189-8.058-8.051-8.058zm.047 3.154c2.31 0 4.5 1.87 4.5 4.883 0 2.949-2.18 4.872-4.511 4.872-2.56 0-4.58-2.053-4.58-4.895 0-2.782 1.994-4.86 4.59-4.86zM68.253 9.332c-4.313 0-7.703 3.78-7.703 8.024 0 4.833 3.93 8.038 7.628 8.038 2.287 0 3.503-.908 4.4-1.95v1.583c0 2.77-1.68 4.43-4.217 4.43-2.45 0-3.68-1.825-4.107-2.86l-3.084 1.29c1.094 2.316 3.296 4.73 7.217 4.73 4.287 0 7.555-2.703 7.555-8.372V9.815H72.58v1.36c-1.034-1.116-2.448-1.843-4.326-1.843zm.312 3.148c2.114 0 4.285 1.807 4.285 4.893 0 3.136-2.166 4.865-4.332 4.865-2.299 0-4.438-1.869-4.438-4.836 0-3.083 2.222-4.922 4.485-4.922zM90.9 9.313c-4.069 0-7.484 3.239-7.484 8.02 0 5.057 3.807 8.057 7.874 8.057 3.395 0 5.478-1.859 6.721-3.524l-2.773-1.847c-.72 1.118-1.923 2.21-3.93 2.21-2.257 0-3.294-1.236-3.936-2.433l10.758-4.468-.558-1.31c-1.04-2.564-3.465-4.706-6.673-4.706zm.14 3.088c1.465 0 2.52.78 2.968 1.715l-7.184 3.006c-.31-2.327 1.893-4.721 4.215-4.721zM78.287 24.913h3.534V1.243h-3.534z"/></svg>