<svg aria-label="John Deere" class="mx-3" fill="currentColor" height="65" width="100" xmlns="http://www.w3.org/2000/svg"><path clip-rule="evenodd" d="M43.023 16.091c-1.089 2.247-1.838 4.697-2.178 7.489-.069 0-.613.068-.613.068-2.383.205-4.765.409-7.08 1.293l.136.886c3.812 4.697 9.599 7.556 9.599 7.556l-1.09-2.11c-.272-.204-1.089-.409-1.089-.409-2.587-.817-4.425-4.22-4.697-4.765 2.11 0 4.016.612 5.786 1.225 1.226.341 2.383.749 3.54.886 2.043.34 4.153 0 6.127-.273a20.567 20.567 0 0 1 4.563-.069c.203.205 1.769 2.111 3.335 2.928 1.906.953 7.42 2.655 7.693 2.723.135.068 2.247 2.246 3.608 4.698-6.265 2.86-13.275 4.356-20.288 4.356-7.012 0-14.024-1.497-20.287-4.356-2.043-5.31-3.132-10.893-3.132-16.612 0-5.65 1.09-11.233 3.132-16.542C36.35 2.203 43.363.706 50.375.706c7.08 0 14.092 1.498 20.288 4.357 2.042 5.31 3.13 10.892 3.13 16.542a45.58 45.58 0 0 1-2.586 15.182c-1.974-3.404-2.79-4.425-2.79-4.425-.068 0-2.792-1.43-3.473-2.043-.545-.477-.816-1.43-1.157-2.519-.409-1.565-.952-3.472-2.45-5.038l1.701-.68c-.476-3.2-4.288-5.242-4.356-5.242l-.07.068c1.499 1.838 1.771 3.335 1.771 4.289 0 .476-.067.816-.135.953-.41-.204-3.2-1.09-9.668-.817-.885 0-2.246-.068-3.063-.817-.477-.409-.681-1.09-.681-1.839 0-2.246.953-5.242 1.09-5.65l1.634.204c2.042-1.089 2.79-2.11 2.858-2.246-1.701.205-3.948.612-3.948.612.137-.34.545-1.633.545-3.063 0-1.566-.476-3.268-2.45-4.29l-.137.07c.068.067 1.157 1.292 1.157 2.926 0 .477-.068 1.021-.273 1.498-.68-.204-1.089-.272-1.838-.272-.408-1.362-1.565-2.451-3.131-2.996l-.068.068s1.702 1.226 1.77 2.928c-.817.068-1.294.204-2.315.476-.477-.68-1.43-1.225-2.723-1.361v.136s1.497.477 1.77 1.634c-.885.409-1.974 1.021-2.587 1.566l.068.069c3.812-1.43 7.352-1.77 8.237-.681.204.204.273.408.273.68 0 .272-.137.681-.409 1.09-1.838.408-4.697 1.157-7.011 2.042l.34.953s2.314.477 3.2.682c0 0 .34.067.135.339zM.71 62.338s1.232.447 2.612.447c1.493 0 2.388-.223 2.91-.746.411-.41.598-1.12.56-2.2v-7.016h2.202v7.351c-.037 3.246-1.604 4.627-5.261 4.627-1.791 0-3.023-.298-3.023-.298zm14.702-7.388c3.507 0 5.56 1.866 5.56 5 0 2.24-1.455 4.851-5.56 4.851-4.142 0-5.597-2.612-5.597-4.85 0-3.135 2.089-5 5.597-5zm3.395 4.889c0-1.903-1.23-2.986-3.395-2.986s-3.433 1.083-3.433 2.986c0 2.648 2.164 3.023 3.433 3.023s3.395-.375 3.395-3.023zm10.933-4.665v3.731h-5.635v-3.73H21.94v9.402h2.164v-3.769h5.635v3.77h2.202v-9.404zM62.5 62.637v-1.829h5v-1.903h-5v-1.829h6.455v-1.902h-8.657v9.403h8.657v-1.94zm9.777 0v-1.829h5v-1.903h-5v-1.829h6.491v-1.902h-8.656v9.403h8.656v-1.94zm20.522 0v-1.829h5v-1.903h-5v-1.829h6.492v-1.902h-8.657v9.403h8.657v-1.94zm-39.926-7.873c2.836 0 4.478 1.417 4.478 3.88 0 3.47-2.798 3.993-4.478 3.993h-3.097v-7.873zm0-1.941h-5.261v11.754h5.261c4.926 0 6.642-3.134 6.642-5.783 0-3.732-2.5-5.971-6.642-5.971zm34.328 8.172c1.68-.41 2.276-1.68 2.276-2.799 0-1.903-1.231-3.022-3.358-3.022h-6.156v9.403h2.163v-3.433h2.575l2.612 3.433h2.65zm-5.074-1.791v-2.128h3.993c.745 0 1.194.412 1.194 1.045 0 .934-.746 1.083-1.194 1.083zm-41.045 5.373L35.41 58.16v6.418h-2.163v-9.403h2.163l5.672 6.343v-6.343h2.164v9.403z" fill-rule="evenodd"/></svg>