<svg aria-label="Grand Hyatt" class="mx-3" fill="currentColor" height="22" width="162" xmlns="http://www.w3.org/2000/svg"><path d="M81.214 0h-.77v22h.77zM66.705 5.646h-3.39V16.6h3.39c3.613 0 5.928-2.196 5.928-5.466 0-3.271-2.315-5.467-5.928-5.467zm-.111 9.627h-1.71v-8.26h1.71c3.04 0 4.451 1.697 4.451 4.13 0 2.432-1.412 4.13-4.451 4.13zm-11.476-1.995-7.38-7.924v11.213h1.455V9.005l7.377 7.92V5.688h-1.452zM0 11.152c0 3.283 2.312 5.466 5.928 5.466h4.025v-5.682H8.397v4.316H6.039c-3.04 0-4.452-1.674-4.452-4.13 0-2.457 1.412-4.13 4.452-4.13h3.914V5.645H5.928C2.312 5.646 0 7.838 0 11.112zm25.307-2.175c0-2.43-1.695-3.322-4.645-3.322h-3.37v10.954h1.542V6.991H20.6c2.269 0 3.126.404 3.132 1.977 0 1.573-.863 1.977-3.132 1.977h-1.05l4.648 5.646h1.96s-3.835-4.422-3.804-4.425c1.896-.322 2.95-1.285 2.956-3.198zm6.288 7.617h1.517l1.187-2.587h4.966l1.165 2.587h1.627L36.817 5.31zm3.428-4.167 1.785-3.869 1.754 3.879zM133.589 6.806h4.066v9.676h1.578V6.806h3.955V5.45h-9.599zm14.86-1.355v1.355h4.097v9.676h1.578V6.806h4.137V5.45zm-38.814 5.619-3.675-5.622h-1.741l4.593 7.21v3.827h1.572v-3.87l4.5-7.167h-1.686zm8.717 5.412h1.541l1.255-2.466h5.669l1.233 2.466h1.643l-5.672-11.425zm3.585-4.045 2.065-4.07 2.025 4.07zM96.926 10.541h-5.928v-5.09h-1.575v11.037h1.575v-4.589h5.928v4.589h1.578V5.45h-1.578zM160.912 5.457a1.076 1.076 0 0 0-.789.286 1.043 1.043 0 0 0-.245 1.175 1.043 1.043 0 0 0 .61.57c.135.048.28.07.424.062a1.076 1.076 0 0 0 .789-.286 1.043 1.043 0 0 0 .245-1.174 1.043 1.043 0 0 0-.61-.57c-.135-.049-.28-.07-.424-.063zm0 1.91a.87.87 0 0 1-.803-.54.852.852 0 0 1 .2-.938.879.879 0 0 1 .956-.177.869.869 0 0 1 .532.802.82.82 0 0 1-.252.62.836.836 0 0 1-.633.234z"/><path d="M161.439 7.067c-.099-.115-.339-.392-.385-.45a.313.313 0 0 0 .231-.1.299.299 0 0 0 .064-.11c.013-.04.018-.084.013-.126 0-.24-.154-.35-.49-.35h-.358V7.08h.179v-.996h.176c.24 0 .308.049.308.198 0 .148-.074.197-.308.197h-.13l.494.607h.225z"/></svg>